<svg width="2725" height="2132" viewBox="0 0 2725 2132" fill="none" xmlns="http://www.w3.org/2000/svg">
<g filter="url(#filter0_f_17_192)">
<path d="M2411 1480.5C2411 1666.9 2259.9 1818 2073.5 1818C1887.1 1818 1736 1666.9 1736 1480.5C1736 1294.1 1887.1 1143 2073.5 1143C2259.9 1143 2411 1294.1 2411 1480.5Z" fill="#8F8FDB" fill-opacity="0.8"/>
</g>
<g filter="url(#filter1_f_17_192)">
<path d="M943 628.5C943 802.194 802.194 943 628.5 943C454.806 943 314 802.194 314 628.5C314 454.806 454.806 314 628.5 314C802.194 314 943 454.806 943 628.5Z" fill="#8F8FDB"/>
</g>
<defs>
<filter id="filter0_f_17_192" x="1422" y="829" width="1303" height="1303" filterUnits="userSpaceOnUse" color-interpolation-filters="sRGB">
<feFlood flood-opacity="0" result="BackgroundImageFix"/>
<feBlend mode="normal" in="SourceGraphic" in2="BackgroundImageFix" result="shape"/>
<feGaussianBlur stdDeviation="157" result="effect1_foregroundBlur_17_192"/>
</filter>
<filter id="filter1_f_17_192" x="0" y="0" width="1257" height="1257" filterUnits="userSpaceOnUse" color-interpolation-filters="sRGB">
<feFlood flood-opacity="0" result="BackgroundImageFix"/>
<feBlend mode="normal" in="SourceGraphic" in2="BackgroundImageFix" result="shape"/>
<feGaussianBlur stdDeviation="157" result="effect1_foregroundBlur_17_192"/>
</filter>
</defs>
</svg>
